<?xml version="1.0" ?><svg id="Layer_1" style="enable-background:new 0 0 512 512;" version="1.1" viewBox="0 0 512 512" xml:space="preserve" xmlns="http://www.w3.org/2000/svg" xmlns:xlink="http://www.w3.org/1999/xlink"><style type="text/css">
	.st0{fill:#D30025;}
	.st1{fill:#FFFFFF;}
</style><g><rect class="st0" height="298.7" width="512" y="106.7"/><path class="st1" d="M256,181.3c41.2,0,74.7,33.4,74.7,74.7c0,41.2-33.4,74.7-74.7,74.7c-41.2,0-74.7-33.4-74.7-74.7   C181.3,214.8,214.8,181.3,256,181.3"/><path class="st0" d="M256,200c30.9,0,56,25.1,56,56c0,30.9-25.1,56-56,56c-30.9,0-56-25.1-56-56C200,225.1,225.1,200,256,200"/><path class="st1" d="M270.9,211.2c24.7,0,44.8,20.1,44.8,44.8c0,24.7-20.1,44.8-44.8,44.8c-24.7,0-44.8-20.1-44.8-44.8   C226.1,231.3,246.2,211.2,270.9,211.2"/><polyline class="st0" points="237.3,256 269.3,266.4 274.5,250.4  "/><polyline class="st0" points="237.3,256 269.3,245.6 274.5,261.6  "/><polyline class="st0" points="260.6,224 260.6,257.6 277.3,257.6  "/><polyline class="st0" points="260.6,224 280.3,251.2 266.7,261.1  "/><polyline class="st0" points="260.6,288 280.3,260.8 266.7,250.9  "/><polyline class="st0" points="260.6,288 260.6,254.4 277.3,254.4  "/><polyline class="st0" points="298.1,236.2 266.2,246.6 271.3,262.6  "/><polyline class="st0" points="298.1,236.2 278.4,263.4 264.8,253.6  "/><polyline class="st0" points="298.1,275.8 278.4,248.6 264.8,258.4  "/><polyline class="st0" points="298.1,275.8 266.2,265.4 271.3,249.4  "/></g></svg>