<?xml version="1.0" ?><svg id="Layer_1" style="enable-background:new 0 0 512 512;" version="1.1" viewBox="0 0 512 512" xml:space="preserve" xmlns="http://www.w3.org/2000/svg" xmlns:xlink="http://www.w3.org/1999/xlink"><style type="text/css">
	.st0{fill:#EED12F;}
	.st1{fill:#242EA7;}
	.st2{fill:#BD0034;}
	.st3{fill:#FFFFFF;}
</style><g><rect class="st0" height="99.6" width="512" y="106.7"/><rect class="st1" height="99.6" width="512" y="206.2"/><rect class="st2" height="99.6" width="512" y="305.8"/><polygon class="st3" points="233.7,241.7 237.7,213.3 251.1,238.6 225.4,226.1 253.6,221.1  "/><polygon class="st3" points="260.9,238.6 274.3,213.3 278.3,241.7 258.4,221.1 286.6,226.1  "/><polygon class="st3" points="209.3,253.8 203.3,225.8 224.6,245 196.1,242 220.9,227.7  "/><polygon class="st3" points="287.4,245 308.7,225.8 302.7,253.8 291.1,227.7 315.9,242  "/><polygon class="st3" points="190.5,273.6 175.3,249.4 201.8,260.1 174.1,267 192.5,245.1  "/><polygon class="st3" points="310.2,260.1 336.7,249.4 321.5,273.6 319.5,245.1 337.9,267  "/><polygon class="st3" points="179.5,298.7 157,281.1 185.6,282.1 161.9,298.1 171.7,271.2  "/><polygon class="st3" points="326.4,282.1 355,281.1 332.5,298.7 340.3,271.2 350.1,298.1  "/></g></svg>